<svg xmlns="http://www.w3.org/2000/svg" width="21" height="30" viewBox="0 0 21 30">
  <path id="Vector-2" d="M18.552,9.171h-.9V6.338a2.577,2.577,0,0,0-.17-.979,2.55,2.55,0,0,0-.527-.838,2.51,2.51,0,0,0-.8-.569,2.48,2.48,0,0,0-.958-.213H12.516A3.745,3.745,0,0,0,12.246,2.3a3.7,3.7,0,0,0-.8-1.218,3.643,3.643,0,0,0-1.2-.809A3.6,3.6,0,0,0,8.827,0a3.693,3.693,0,0,0-2.6,1.1A3.8,3.8,0,0,0,5.142,3.737H2.569a2.479,2.479,0,0,0-.991.181,2.507,2.507,0,0,0-.841.562,2.548,2.548,0,0,0-.556.852,2.577,2.577,0,0,0-.18,1V23.887a2.575,2.575,0,0,0,.212.971,2.546,2.546,0,0,0,.563.814,2.5,2.5,0,0,0,.828.534,2.479,2.479,0,0,0,.966.171H4.133v1.133a2.533,2.533,0,0,0,.728,1.755A2.464,2.464,0,0,0,6.593,30h8.6a2.242,2.242,0,0,0,.906-.166,2.269,2.269,0,0,0,.767-.517l3.346-3.394A2.69,2.69,0,0,0,21,24.111V11.661a2.47,2.47,0,0,0-.173-.961,2.443,2.443,0,0,0-.531-.815,2.4,2.4,0,0,0-.8-.538,2.375,2.375,0,0,0-.948-.175Zm-3.02,7.8H9.622a.862.862,0,0,1-.569-.3.886.886,0,0,1-.213-.612.782.782,0,0,1,.226-.563.766.766,0,0,1,.256-.17.756.756,0,0,1,.3-.055h5.911a.752.752,0,0,1,.3.055.761.761,0,0,1,.258.174.772.772,0,0,1,.168.263.783.783,0,0,1,.051.31.885.885,0,0,1-.218.6A.862.862,0,0,1,15.532,16.968Zm0,4.3H9.622a.756.756,0,0,1-.3-.051.765.765,0,0,1-.259-.167.777.777,0,0,1-.173-.257.785.785,0,0,1-.06-.305.882.882,0,0,1,.218-.614.858.858,0,0,1,.577-.289h5.911a.857.857,0,0,1,.569.294.881.881,0,0,1,.214.61.783.783,0,0,1-.054.307.772.772,0,0,1-.169.26.756.756,0,0,1-.56.226ZM12.516,25.7H9.622a.794.794,0,0,1-.324-.076.8.8,0,0,1-.266-.2.817.817,0,0,1-.162-.294.825.825,0,0,1-.031-.335.785.785,0,0,1,.055-.306.777.777,0,0,1,.169-.26A.76.76,0,0,1,9.622,24H12.55a.859.859,0,0,1,.6.216.882.882,0,0,1,.292.577.9.9,0,0,1-.258.646.882.882,0,0,1-.292.2.873.873,0,0,1-.345.066ZM15.2,5.434a.872.872,0,0,1,.344.065.882.882,0,0,1,.292.2.9.9,0,0,1,.194.295.906.906,0,0,1,.066.348V9.171H12.516V5.434Zm-8.366-1.7a2.053,2.053,0,0,1,.148-.779A2.03,2.03,0,0,1,7.411,2.3a2,2,0,0,1,.649-.443A1.975,1.975,0,0,1,8.827,1.7a2.076,2.076,0,0,1,1.473.581,2.134,2.134,0,0,1,.652,1.46H6.832ZM2.569,24.676a.787.787,0,0,1-.622-.191.8.8,0,0,1-.2-.269.815.815,0,0,1-.074-.328V6.338a.859.859,0,0,1,.051-.355.85.85,0,0,1,.192-.3.835.835,0,0,1,.3-.194.826.826,0,0,1,.35-.052h8.366V9.171H9.258V7.36A.782.782,0,0,0,9.2,7.053a.773.773,0,0,0-.169-.26.76.76,0,0,0-.257-.171.752.752,0,0,0-.3-.054.787.787,0,0,0-.621.194.805.805,0,0,0-.2.27.815.815,0,0,0-.072.329V9.171H6.593a2.38,2.38,0,0,0-.948.175,2.407,2.407,0,0,0-.8.538,2.446,2.446,0,0,0-.532.815,2.473,2.473,0,0,0-.175.961V24.676ZM9.262,10.754h1.673v.568a.878.878,0,0,1-.292.576.854.854,0,0,1-.6.214.751.751,0,0,1-.3-.054.759.759,0,0,1-.256-.17.773.773,0,0,1-.169-.259.782.782,0,0,1-.055-.306v-.568ZM5.8,27.509V11.661a.886.886,0,0,1,.213-.611.862.862,0,0,1,.569-.3H7.589v.568a2.529,2.529,0,0,0,.724,1.753,2.459,2.459,0,0,0,1.728.737,2.379,2.379,0,0,0,.948-.175,2.407,2.407,0,0,0,.8-.538,2.448,2.448,0,0,0,.532-.815,2.474,2.474,0,0,0,.175-.961v-.568h6.053a.862.862,0,0,1,.569.3.886.886,0,0,1,.213.611V24H15.871a.753.753,0,0,0-.3.054.761.761,0,0,0-.257.171.778.778,0,0,0-.223.567v3.631h-8.5a.857.857,0,0,1-.569-.294.881.881,0,0,1-.214-.61Zm10.855-.36V25.7h1.564Z" fill="currentColor" fill-rule="evenodd"/>
</svg>
