<svg width="24" height="30" viewBox="0 0 24 30" fill="none" xmlns="http://www.w3.org/2000/svg">
<path d="M19.2653 27.7753V26.6513C19.2653 24.2674 17.1821 22.3071 14.6294 22.3071H9.68379C7.13606 22.3071 5.04791 24.2566 5.04791 26.6513V27.7753" stroke="white" stroke-width="1.5" stroke-linecap="round" stroke-linejoin="round"/>
<path d="M11.8242 19.4752C13.8833 19.4752 15.5525 17.806 15.5525 15.7469C15.5525 13.6878 13.8833 12.0186 11.8242 12.0186C9.76512 12.0186 8.09589 13.6878 8.09589 15.7469C8.09589 17.806 9.76512 19.4752 11.8242 19.4752Z" stroke="white" stroke-width="1.5" stroke-linecap="round" stroke-linejoin="round"/>
<path d="M6.29732 2.77539H2V7.47461H22.4423V2.77539H11.0529" stroke="white" stroke-width="1.5" stroke-linecap="round" stroke-linejoin="round"/>
<path d="M5.09534 7.47443V5.59326" stroke="white" stroke-width="1.5" stroke-linecap="round" stroke-linejoin="round"/>
<path d="M8.03271 7.4751V6.30029" stroke="white" stroke-width="1.5" stroke-linecap="round" stroke-linejoin="round"/>
<path d="M10.9703 7.47461V5.125" stroke="white" stroke-width="1.5" stroke-linecap="round" stroke-linejoin="round"/>
<path d="M13.9078 7.4751V6.30029" stroke="white" stroke-width="1.5" stroke-linecap="round" stroke-linejoin="round"/>
<path d="M16.8453 7.47461V5.125" stroke="white" stroke-width="1.5" stroke-linecap="round" stroke-linejoin="round"/>
<path d="M19.7753 7.47461V5.7124" stroke="white" stroke-width="1.5" stroke-linecap="round" stroke-linejoin="round"/>
</svg>
