<svg xmlns="http://www.w3.org/2000/svg" width="29.267" height="30" viewBox="0 0 29.267 30">
  <path id="Vector-13" d="M.931,3.166H4.939V.931A1,1,0,0,1,5.87,0H8.663a1,1,0,0,1,.931.931V3.166H19.75V.931A.931.931,0,0,1,20.681,0h2.7a.931.931,0,0,1,.931.931V3.166h4.02a.935.935,0,0,1,.931.935V29.057a.935.935,0,0,1-.931.943H.931A1,1,0,0,1,0,29.065V4.1a1,1,0,0,1,.931-.935ZM9.594,19.378a.923.923,0,1,1,1.308-1.3l2.7,2.7,4.659-6.882a.915.915,0,0,1,1.3-.279,1,1,0,0,1,.271,1.291l-5.3,7.825-.093.186a.895.895,0,0,1-1.3,0ZM1.862,8.29H27.389V5.052H24.317V6.266a.931.931,0,0,1-.931.931h-2.7a.931.931,0,0,1-.931-.931V5.052H9.594V6.266a1,1,0,0,1-.931.931H5.87a1,1,0,0,1-.931-.931V5.052H1.862Zm25.527,1.866H1.862V28.134H27.389ZM21.612,4.084V5.3h.838V1.862h-.838ZM6.8,4.084V5.3h.931V1.862H6.8Z" fill="#FFFFFF"/>
</svg>
