<svg xmlns="http://www.w3.org/2000/svg" width="32.935" height="30" viewBox="0 0 32.935 30">
  <path id="Vector-6" d="M25.2,7.072a2.731,2.731,0,0,1-1.257,2.05c-.2.169-.575.476-.574.591a.8.8,0,0,1-.81.811h-.007a.806.806,0,0,1-.816-.8,2.445,2.445,0,0,1,1.157-1.849c.407-.342.674-.582.674-.8a.808.808,0,0,0-1.616,0,.817.817,0,0,1-1.633,0,2.441,2.441,0,0,1,4.882,0Zm-2.625,4.206a.8.8,0,0,0-.8.816V12.1a.8.8,0,0,0,.8.813.818.818,0,0,0,0-1.636ZM6.114,16.966a.817.817,0,1,0,0,1.633h.068a.817.817,0,1,0,0-1.633Zm2.838,0a.817.817,0,1,0,0,1.633H9.02a.817.817,0,1,0,0-1.633ZM32.935,3.924v9.191a3.925,3.925,0,0,1-3.921,3.942H18.424c-.207,0-.378,0-.52,0s-.318,0-.383,0c-.068.045-.236.2-.4.347l-.215.195-3,2.731a.836.836,0,0,1-1.392-.6V11.069H3.967A2.34,2.34,0,0,0,1.633,13.39v9.191A2.3,2.3,0,0,0,3.967,24.86H15.8a.82.82,0,0,1,.545.231l2.441,2.25V19.58a.817.817,0,1,1,1.633,0v9.612a.805.805,0,0,1-.481.743A.784.784,0,0,1,19.61,30a.825.825,0,0,1-.551-.222l-3.58-3.285H3.967A3.939,3.939,0,0,1,0,22.581V13.39A3.975,3.975,0,0,1,3.967,9.436h8.554V3.924A3.961,3.961,0,0,1,16.5,0H29.014A3.91,3.91,0,0,1,32.935,3.924Zm-1.633,0a2.275,2.275,0,0,0-2.288-2.291H16.5a2.326,2.326,0,0,0-2.347,2.291V17.875L15.8,16.392c.076-.069.161-.133.223-.19a2.061,2.061,0,0,1,1.919-.781c.133,0,.292,0,.486,0h10.59A2.291,2.291,0,0,0,31.3,13.115Z" fill="#3e90d8"/>
</svg>
