<svg xmlns="http://www.w3.org/2000/svg" width="25.4" height="30.4" viewBox="0 0 25.4 30.4">
  <path id="Vector-9" d="M4.47,12.687H16.743a.544.544,0,1,0,0-1.087H4.47a.544.544,0,1,0,0,1.087Zm0-3.06H16.743a.544.544,0,1,0,0-1.087H4.47a.544.544,0,1,0,0,1.087Zm0,5.8H14.561a.544.544,0,1,0,0-1.087H4.47a.544.544,0,1,0,0,1.087Zm6.455,1.655H4.47a.544.544,0,1,0,0,1.087h6.455a.544.544,0,1,0,0-1.087Zm-1.8,2.743H4.47a.544.544,0,1,0,0,1.087H9.124a.544.544,0,1,0,0-1.087Zm10.92,1.5a1.59,1.59,0,1,0-1.6-1.591,1.543,1.543,0,0,0,.025.243l-2.947,2.141a1.59,1.59,0,1,0,0,2.492l2.956,2.143a1.566,1.566,0,0,0-.034.325,1.613,1.613,0,1,0,.617-1.246l-2.956-2.143a1.582,1.582,0,0,0,0-.648l2.9-2.106A1.584,1.584,0,0,0,20.044,21.33Zm0-2.093a.5.5,0,1,1-.505.5A.5.5,0,0,1,20.044,19.237Zm-5.5,4.635a.5.5,0,1,1,.505-.5A.5.5,0,0,1,14.546,23.872Zm5.5,2.706a.5.5,0,1,1-.505.5A.5.5,0,0,1,20.044,26.579Zm.169-10.526V6.693a.544.544,0,0,0-.158-.383L14.934,1.161A.548.548,0,0,0,14.546,1h-13A.544.544,0,0,0,1,1.544V26.463a.544.544,0,0,0,.545.544H11.684a7.6,7.6,0,1,0,8.529-10.954ZM15.092,2.864l3.268,3.285H15.092ZM11.209,25.919H2.091V2.087H14V6.693a.544.544,0,0,0,.545.544h4.576V15.86c-.242-.023-.487-.037-.736-.037a7.61,7.61,0,0,0-7.613,7.589A7.517,7.517,0,0,0,11.209,25.919Zm7.177,3.993a6.5,6.5,0,1,1,6.523-6.5A6.519,6.519,0,0,1,18.386,29.912Z" transform="translate(-0.8 -0.8)" fill="#45dda1" stroke="#45dda1" stroke-linecap="round" stroke-width="0.4"/>
</svg>
