<svg width="19" height="26" viewBox="0 0 19 26" fill="none" xmlns="http://www.w3.org/2000/svg">
<rect x="1" y="1" width="16.9014" height="24" rx="2" stroke="#ffb498" stroke-width="1.5"/>
<path d="M3.02817 13.8664H12.5556M3.02817 16.8981H15.8732M3.02817 19.9298H12.5556M11.1562 6.27664H15.4946M13.403 4.04248V6.27664V8.51079" stroke="#ffb498" stroke-width="1.5"/>
<path d="M4.79227 9.1129V5.04248H3.29227V9.1129H4.79227ZM5.99649 5.04248V9.1129H7.49649V5.04248H5.99649ZM5.04227 4.79248H5.39438V3.29248H5.04227V4.79248ZM5.39438 4.79248H5.74649V3.29248H5.39438V4.79248ZM7.49649 5.04248C7.49649 4.07598 6.71299 3.29248 5.74649 3.29248V4.79248C5.88456 4.79248 5.99649 4.90441 5.99649 5.04248H7.49649ZM4.79227 5.04248C4.79227 4.90441 4.9042 4.79248 5.04227 4.79248V3.29248C4.07577 3.29248 3.29227 4.07598 3.29227 5.04248H4.79227Z" fill="#ffb498"/>
<path d="M4.04227 6.40869H6.74649" stroke="#ffb498" stroke-width="1.5"/>
</svg>
