<svg width="21" height="27" viewBox="0 0 21 27" fill="none" xmlns="http://www.w3.org/2000/svg">
<path d="M17.2526 1H3.08031C1.93138 1 1 1.91681 1 3.04776V21.5845C1 22.7155 1.93138 23.6323 3.08031 23.6323H17.2526C18.4015 23.6323 19.3329 22.7155 19.3329 21.5845V3.04776C19.3329 1.91681 18.4015 1 17.2526 1Z" stroke="#385a90" stroke-width="1.4" stroke-miterlimit="10"/>
<path d="M13.1175 3.71143V5.32195C13.1175 5.72144 12.7884 6.04543 12.3825 6.04543H7.95031C7.54447 6.04543 7.21533 5.72144 7.21533 5.32195V3.71143" stroke="#385a90" stroke-width="1.4" stroke-miterlimit="10"/>
<path d="M13.1175 11.2075V12.818C13.1175 13.2175 12.7884 13.5415 12.3825 13.5415H7.95031C7.54447 13.5415 7.21533 13.2175 7.21533 12.818V11.2075" stroke="#385a90" stroke-width="1.4" stroke-miterlimit="10"/>
<path d="M13.1175 18.6997V20.3102C13.1175 20.7097 12.7884 21.0337 12.3825 21.0337H7.95031C7.54447 21.0337 7.21533 20.7097 7.21533 20.3102V18.6997" stroke="#385a90" stroke-width="1.4" stroke-miterlimit="10"/>
<path d="M1 8.64648H19.3329" stroke="#385a90" stroke-width="1.4" stroke-miterlimit="10"/>
<path d="M1 16.1392H19.3329" stroke="#385a90" stroke-width="1.4" stroke-miterlimit="10"/>
<path d="M5.50574 23.6318V26.3842" stroke="#385a90" stroke-width="1.4" stroke-miterlimit="10"/>
<path d="M14.9805 23.6318V26.3842" stroke="#385a90" stroke-width="1.4" stroke-miterlimit="10"/>
</svg>
