<svg width="22" height="22" viewBox="0 0 22 22" fill="none" xmlns="http://www.w3.org/2000/svg">
<path d="M7.33333 9.16667C6.32081 9.16667 5.5 8.34586 5.5 7.33333C5.5 6.32081 6.32081 5.5 7.33333 5.5C8.34586 5.5 9.16667 6.32081 9.16667 7.33333C9.16667 8.34586 8.34586 9.16667 7.33333 9.16667ZM14.6667 9.16667C13.6541 9.16667 12.8333 8.34586 12.8333 7.33333C12.8333 6.32081 13.6541 5.5 14.6667 5.5C15.6792 5.5 16.5 6.32081 16.5 7.33333C16.5 8.34586 15.6792 9.16667 14.6667 9.16667ZM7.33333 16.5C6.32081 16.5 5.5 15.6792 5.5 14.6667C5.5 13.6541 6.32081 12.8333 7.33333 12.8333C8.34586 12.8333 9.16667 13.6541 9.16667 14.6667C9.16667 15.6792 8.34586 16.5 7.33333 16.5ZM14.6667 16.5C13.6541 16.5 12.8333 15.6792 12.8333 14.6667C12.8333 13.6541 13.6541 12.8333 14.6667 12.8333C15.6792 12.8333 16.5 13.6541 16.5 14.6667C16.5 15.6792 15.6792 16.5 14.6667 16.5ZM0.916667 8.25C0.410406 8.25 0 7.83959 0 7.33333C0 6.82707 0.410406 6.41667 0.916667 6.41667C1.42293 6.41667 1.83333 6.82707 1.83333 7.33333C1.83333 7.83959 1.42293 8.25 0.916667 8.25ZM0.916667 15.5833C0.410406 15.5833 0 15.1729 0 14.6667C0 14.1604 0.410406 13.75 0.916667 13.75C1.42293 13.75 1.83333 14.1604 1.83333 14.6667C1.83333 15.1729 1.42293 15.5833 0.916667 15.5833ZM21.0833 8.25C20.5771 8.25 20.1667 7.83959 20.1667 7.33333C20.1667 6.82707 20.5771 6.41667 21.0833 6.41667C21.5896 6.41667 22 6.82707 22 7.33333C22 7.83959 21.5896 8.25 21.0833 8.25ZM21.0833 15.5833C20.5771 15.5833 20.1667 15.1729 20.1667 14.6667C20.1667 14.1604 20.5771 13.75 21.0833 13.75C21.5896 13.75 22 14.1604 22 14.6667C22 15.1729 21.5896 15.5833 21.0833 15.5833ZM7.33333 1.83333C6.82707 1.83333 6.41667 1.42293 6.41667 0.916667C6.41667 0.410406 6.82707 0 7.33333 0C7.83959 0 8.25 0.410406 8.25 0.916667C8.25 1.42293 7.83959 1.83333 7.33333 1.83333ZM14.6667 1.83333C14.1604 1.83333 13.75 1.42293 13.75 0.916667C13.75 0.410406 14.1604 0 14.6667 0C15.1729 0 15.5833 0.410406 15.5833 0.916667C15.5833 1.42293 15.1729 1.83333 14.6667 1.83333ZM7.33333 22C6.82707 22 6.41667 21.5896 6.41667 21.0833C6.41667 20.5771 6.82707 20.1667 7.33333 20.1667C7.83959 20.1667 8.25 20.5771 8.25 21.0833C8.25 21.5896 7.83959 22 7.33333 22ZM14.6667 22C14.1604 22 13.75 21.5896 13.75 21.0833C13.75 20.5771 14.1604 20.1667 14.6667 20.1667C15.1729 20.1667 15.5833 20.5771 15.5833 21.0833C15.5833 21.5896 15.1729 22 14.6667 22Z" fill="currentColor"/>
</svg>
