<svg xmlns="http://www.w3.org/2000/svg" width="30" height="30" viewBox="0 0 30 30">
  <path id="Vector-3" d="M8.494,3.442A1.757,1.757,0,0,0,8.228.78a5.475,5.475,0,0,0-6.033.265L1.647.5A.762.762,0,0,0,.435.5a.993.993,0,0,0,0,1.2l.538.544A5.408,5.408,0,0,0,.842,8.236a1.646,1.646,0,0,0,2.549.255Zm6.45,5.463a.782.782,0,0,0-.582.226.771.771,0,0,0-.228.578V14.9h-2.82a.812.812,0,0,0-.531.256.8.8,0,0,0,0,1.091.812.812,0,0,0,.531.256h3.63a.909.909,0,0,0,.631-.217.9.9,0,0,0,.31-.587V9.709a.892.892,0,0,0-.308-.589A.9.9,0,0,0,14.945,8.905ZM27.3,15.7a12.279,12.279,0,0,0-3.636-8.656,12.445,12.445,0,0,0-8.717-3.6A12.425,12.425,0,0,0,7.486,6.055,12.25,12.25,0,0,0,8.912,26.364L6.629,28.632a.622.622,0,0,0,0,1.064.762.762,0,0,0,1.212,0l2.685-2.662a12.642,12.642,0,0,0,4.419.934,12.748,12.748,0,0,0,4.565-.929L22.195,29.7a.762.762,0,0,0,1.212,0,.81.81,0,0,0,0-1.064l-2.293-2.272A12.469,12.469,0,0,0,27.3,15.7ZM15.885,26.235v-1.2a.893.893,0,0,0-.31-.585.9.9,0,0,0-.63-.214.867.867,0,0,0-.556.248.857.857,0,0,0-.253.551v1.2a10.669,10.669,0,0,1-6.631-3.1,10.536,10.536,0,0,1-3.037-6.626H5.528a.909.909,0,0,0,.631-.217.9.9,0,0,0,.31-.587.892.892,0,0,0-.31-.585.9.9,0,0,0-.63-.214h-1.2A10.547,10.547,0,0,1,7.422,8.238a10.68,10.68,0,0,1,6.713-3.063v1.2a.862.862,0,0,0,.253.553.873.873,0,0,0,.557.251.909.909,0,0,0,.631-.217.9.9,0,0,0,.31-.587v-1.2a10.664,10.664,0,0,1,6.632,3.1A10.531,10.531,0,0,1,25.553,14.9H24.346a.812.812,0,0,0-.613.211.8.8,0,0,0,.284,1.35.816.816,0,0,0,.329.042h1.207a10.536,10.536,0,0,1-3.037,6.626A10.669,10.669,0,0,1,15.885,26.235ZM29.047,2.263l.538-.534a.993.993,0,0,0,0-1.2.757.757,0,0,0-1.212,0l-.538.514A5.491,5.491,0,0,0,21.8.78a1.608,1.608,0,0,0-.85,1.26,1.6,1.6,0,0,0,.583,1.4l5.108,5.049a1.655,1.655,0,0,0,2.514-.25,5.408,5.408,0,0,0-.131-5.993ZM27.836,7.307,22.622,2.243a3.713,3.713,0,0,1,4.7.534,3.608,3.608,0,0,1,.538,4.53Zm-25.641,0a3.608,3.608,0,0,1,.528-4.53,3.529,3.529,0,0,1,4.565-.534Z" fill="#f8b3ca" fill-rule="evenodd"/>
</svg>
