<svg width="37" height="22" viewBox="0 0 37 22" fill="none" xmlns="http://www.w3.org/2000/svg">
<g clip-path="url(#clip0_13327_10809)">
<path d="M0 13.8014C5.32578 8.96998 12.0505 7.04388 18.4982 8.00924C25.0702 8.99307 31.2162 13.0162 36.3822 18.2818C37.0817 18.9885 37.2059 20.3002 36.6591 21.2055C36.0911 22.1617 34.994 22.2771 34.3123 21.4503C32.047 18.7206 29.5688 16.291 26.881 14.3233C18.8036 8.14319 8.18396 7.55658 0 13.8014Z" fill="white"/>
<path d="M34.7809 13.2286L36.7692 0H32.8637L31.2908 10.4804C32.5015 11.3072 33.6661 12.2217 34.7845 13.2286H34.7809Z" fill="white"/>
<path d="M30.3179 9.84295L31.7985 0H27.1828L26.0396 7.61663C27.513 8.23095 28.9439 8.97459 30.3215 9.84295H30.3179Z" fill="white"/>
<path d="M25.0383 7.2194L26.1177 0H20.4368L19.567 5.81524C21.4416 6.08776 23.2701 6.55889 25.0383 7.2194V7.2194Z" fill="white"/>
<path d="M15.8211 5.54273C16.7798 5.54273 17.7313 5.59815 18.6722 5.69977L19.3717 0H13.3358L12.6292 5.74134C13.6802 5.61201 14.7418 5.54273 15.8211 5.54273Z" fill="white"/>
<path d="M11.5463 5.89376L12.2706 0H8.36505L7.51648 6.89607C8.83017 6.45728 10.1758 6.12009 11.5463 5.89376Z" fill="white"/>
</g>
<defs>
<clipPath id="clip0_13327_10809">
<rect width="37" height="22" fill="red"/>
</clipPath>
</defs>
</svg>
