<svg xmlns="http://www.w3.org/2000/svg" width="29" height="30" viewBox="0 0 29 30">
  <path id="Vector-4" d="M12.194,15.88h-.851V14.118a2.4,2.4,0,0,0-.352-1.274,2.275,2.275,0,0,0-.964-.87,7.483,7.483,0,0,0-6.93,0,2.273,2.273,0,0,0-.977.865,2.4,2.4,0,0,0-.361,1.279V15.88H.887a.783.783,0,0,0-.372.054.81.81,0,0,0-.309.223.851.851,0,0,0-.178.344.872.872,0,0,0-.01.39l2.207,8.067H1.86a.8.8,0,0,0-.328.06.828.828,0,0,0-.279.19.863.863,0,0,0-.184.288.889.889,0,0,0-.06.34.852.852,0,0,0,.278.558.791.791,0,0,0,.573.2h9.36a.791.791,0,0,0,.573-.2.851.851,0,0,0,.278-.558.89.89,0,0,0-.06-.34.862.862,0,0,0-.184-.288.828.828,0,0,0-.279-.19.8.8,0,0,0-.328-.06h-.364l2.066-8.067A.718.718,0,0,0,12.194,15.88ZM18.268,4.917V.884A.889.889,0,0,0,18.21.542a.865.865,0,0,0-.184-.29.826.826,0,0,0-.279-.191A.8.8,0,0,0,17.417,0H10.483c-.455,0-.723.378-.723.883V4.917c0,.5.246.883.733.883h.482L11.1,7.312a.771.771,0,0,0,1.338.5L14.865,5.8h2.553a.806.806,0,0,0,.329-.062.831.831,0,0,0,.279-.191.867.867,0,0,0,.184-.289A.893.893,0,0,0,18.268,4.917Zm-4.254-.633L12.558,5.546V4.917a.889.889,0,0,0-.058-.342.863.863,0,0,0-.184-.29.827.827,0,0,0-.279-.191.8.8,0,0,0-.329-.061h-.364V1.639h5.346V4.034H14.623C14.382,4.034,14.259,4.162,14.014,4.284ZM23.5,8.446h-6.93a.8.8,0,0,0-.57.2.856.856,0,0,0-.281.554v4.161a.855.855,0,0,0,.281.554.8.8,0,0,0,.57.2h2.562l2.553,2.14a.825.825,0,0,0,.411.165.815.815,0,0,0,.435-.073.85.85,0,0,0,.34-.291.9.9,0,0,0,.152-.43V14.118H23.5a.791.791,0,0,0,.572-.2.851.851,0,0,0,.279-.555V9.2a.851.851,0,0,0-.279-.555A.791.791,0,0,0,23.5,8.446Zm-.728,4.034h-.487a1.029,1.029,0,0,0-.529.246,1.089,1.089,0,0,0-.322.5v.628L19.97,12.6c-.118,0-.364-.127-.482-.127h-2.07V10.085h5.351Zm6.2,16.532a5.531,5.531,0,0,0-.41-2.052,5.369,5.369,0,0,0-1.138-1.731,5.145,5.145,0,0,0-1.691-1.146,4.993,4.993,0,0,0-1.985-.385,5.165,5.165,0,0,0-3.684,1.6,5.566,5.566,0,0,0-1.544,3.822.89.89,0,0,0,.058.342.864.864,0,0,0,.184.29.825.825,0,0,0,.279.191.8.8,0,0,0,.329.061h8.864a.7.7,0,0,0,.35-.067.729.729,0,0,0,.277-.232.766.766,0,0,0,.137-.34.777.777,0,0,0-.036-.367Zm-8.75-.671a3.792,3.792,0,0,1,1.3-2.041,3.535,3.535,0,0,1,4.457,0,3.792,3.792,0,0,1,1.3,2.041Zm3.526-5.148a2.412,2.412,0,0,0,.985-.184,2.487,2.487,0,0,0,.836-.572,2.6,2.6,0,0,0,.552-.867,2.676,2.676,0,0,0,.179-1.023,2.723,2.723,0,0,0-.428-1.473,2.576,2.576,0,0,0-1.145-.978,2.467,2.467,0,0,0-1.475-.153,2.524,2.524,0,0,0-1.308.724,2.682,2.682,0,0,0-.7,1.357,2.743,2.743,0,0,0,.144,1.532,2.631,2.631,0,0,0,.94,1.19A2.487,2.487,0,0,0,23.742,23.192Zm0-3.656a.928.928,0,0,1,.373.074.957.957,0,0,1,.316.219,1,1,0,0,1,.21.329,1.028,1.028,0,0,1,.07.388,1.039,1.039,0,0,1-.164.562.983.983,0,0,1-.438.372.94.94,0,0,1-.563.057.963.963,0,0,1-.5-.278,1.024,1.024,0,0,1-.266-.519,1.047,1.047,0,0,1,.057-.584A1,1,0,0,1,23.2,19.7.949.949,0,0,1,23.742,19.536Zm-17.263-9.2a2.649,2.649,0,0,0,1.885-.82,2.855,2.855,0,0,0,.79-1.957,2.779,2.779,0,0,0-.218-1.036,2.7,2.7,0,0,0-.586-.868,2.582,2.582,0,0,0-.864-.566,2.615,2.615,0,0,0-2.807.6,2.716,2.716,0,0,0-.753,1.867,2.835,2.835,0,0,0,.741,1.917,2.634,2.634,0,0,0,1.811.856Zm0-3.779a1.042,1.042,0,0,1,.737.276,1.12,1.12,0,0,1,.355.725,1.162,1.162,0,0,1-.081.435,1.128,1.128,0,0,1-.236.369,1.081,1.081,0,0,1-.356.245,1.048,1.048,0,0,1-.419.084,1.056,1.056,0,0,1-.7-.367A1.135,1.135,0,0,1,5.5,7.558a1.1,1.1,0,0,1,.3-.693,1.025,1.025,0,0,1,.669-.313ZM3.926,24.977,1.983,17.519h9.1L9.154,24.958Zm-.61-10.864a.861.861,0,0,1,.166-.381.818.818,0,0,1,.321-.252,6,6,0,0,1,5.46,0,.679.679,0,0,1,.272.261.714.714,0,0,1,.1.372v1.762H3.316Z" fill="currentColor" fill-rule="evenodd"/>
</svg>
