<svg width="27" height="24" viewBox="0 0 27 24" fill="none" xmlns="http://www.w3.org/2000/svg">
<g clip-path="url(#clip0_12591_7579)">
<path d="M11.6431 23.9999C8.0416 23.9999 4.43261 23.9999 0.831115 23.9999C0.134775 23.9999 0.00748752 23.8683 0 23.1405C0 18.6347 0 14.1289 0 9.61536C0 8.85665 0.104825 8.70181 0.808652 8.40762C7.18802 5.79084 13.5674 3.16633 19.9468 0.541811C20.2912 0.402456 20.6281 0.255359 20.9725 0.116004C21.5416 -0.116254 21.7288 -0.0310924 21.9684 0.588262C22.7546 2.62439 23.5408 4.66052 24.327 6.69665C25.1805 8.9031 26.0266 11.1018 26.8802 13.3083C27.1273 13.9431 27.0449 14.1367 26.4384 14.3921C25.5474 14.7637 24.6564 15.1431 23.7504 15.4837C23.4135 15.6154 23.3161 15.7934 23.3236 16.1573C23.3386 18.4799 23.3311 20.8102 23.3311 23.1328C23.3311 23.8683 23.2113 23.9921 22.5075 23.9921C18.8835 23.9921 15.2671 23.9921 11.6431 23.9921V23.9999ZM11.703 9.73923C8.32612 9.73923 4.95674 9.73923 1.57987 9.73149C1.18303 9.73149 1.04825 9.80891 1.04825 10.2579C1.07072 14.307 1.06323 18.3637 1.04825 22.4128C1.04825 22.8154 1.1381 22.916 1.53494 22.916C8.2812 22.9005 15.0275 22.9005 21.7812 22.916C22.223 22.916 22.2829 22.7689 22.2754 22.3741C22.2604 18.356 22.2604 14.3457 22.2754 10.3276C22.2754 9.87084 22.193 9.72375 21.7138 9.72375C18.3744 9.74697 15.0349 9.73923 11.6955 9.73923H11.703ZM3.41431 8.53149L3.43677 8.63988C3.71381 8.63988 3.99834 8.6631 4.27537 8.63988C5.13644 8.54697 5.97504 8.72504 6.87354 8.3302C10.3702 6.78955 13.9193 5.38826 17.4459 3.93278C17.8278 3.77794 18.1198 3.78568 18.4193 4.14181C19.0632 4.90826 19.9018 5.29536 20.8902 5.24117C21.3095 5.21794 21.5416 5.396 21.6913 5.7831C21.9983 6.61149 22.3278 7.43213 22.6423 8.25278C22.7022 8.39988 22.7022 8.60117 22.8819 8.65536C23.3236 8.79471 23.3311 9.1431 23.3311 9.52246C23.3236 11.0476 23.3311 12.5728 23.3236 14.0979C23.3236 14.3999 23.3835 14.485 23.6755 14.3612C24.2371 14.1134 24.7987 13.8579 25.3827 13.6566C25.7496 13.5328 25.772 13.3857 25.6373 13.0373C24.1772 9.27471 22.7246 5.50439 21.287 1.73407C21.1373 1.34697 21.0025 1.26955 20.6131 1.43213C16.7121 3.05794 12.8111 4.66052 8.90266 6.2631C7.06822 7.01407 5.24126 7.77278 3.41431 8.52375V8.53149ZM21.6314 8.61665C21.3619 7.91213 21.0998 7.24633 20.8527 6.57278C20.7704 6.356 20.6281 6.34052 20.4409 6.33278C19.52 6.27084 18.6963 5.92246 18.0225 5.27988C17.7679 5.03213 17.5732 5.05536 17.2887 5.17923C15.896 5.76762 14.4958 6.33278 13.0957 6.91342C11.7704 7.4631 10.4526 8.01278 9.12729 8.55472L9.14226 8.63213H21.6314V8.61665Z" fill="#07abbe"/>
<path d="M11.703 21.809C9.61398 21.809 7.52496 21.8013 5.42845 21.809C4.9792 21.809 4.71714 21.6697 4.5599 21.2129C4.24543 20.2684 3.60899 19.6103 2.69551 19.2774C2.29118 19.1303 2.104 18.8903 2.11148 18.4413C2.12646 17.0245 2.11897 15.6078 2.11148 14.191C2.11148 13.7807 2.24626 13.5329 2.65058 13.3858C3.57155 13.0452 4.23794 12.3949 4.5599 11.4194C4.70216 10.9781 4.97172 10.8232 5.38353 10.831C6.13977 10.831 6.89601 10.831 7.65225 10.831C10.9917 10.831 14.3311 10.8387 17.6631 10.8232C18.2546 10.8232 18.629 10.9549 18.8461 11.6129C19.1381 12.4955 19.812 13.0761 20.6656 13.3858C21.0699 13.5329 21.2121 13.7652 21.2121 14.191C21.2047 15.6232 21.2047 17.0632 21.2121 18.4955C21.2121 18.8981 21.0624 19.1226 20.688 19.262C19.7371 19.6026 19.0782 20.2761 18.7488 21.2671C18.614 21.6774 18.3819 21.8245 17.97 21.8245C15.881 21.809 13.792 21.8245 11.6955 21.8245L11.703 21.809ZM11.6431 20.7174C13.5599 20.7174 15.4767 20.7174 17.386 20.7174C17.6855 20.7174 17.8428 20.6323 17.9775 20.3458C18.3819 19.4865 19.0183 18.8439 19.8569 18.4336C20.074 18.3252 20.1564 18.2013 20.1564 17.9458C20.1414 16.8774 20.1414 15.8013 20.1564 14.7329C20.1564 14.462 20.089 14.3149 19.8419 14.1987C19.0033 13.7884 18.3744 13.1381 17.97 12.2787C17.8353 12 17.678 11.9303 17.401 11.9303C13.5674 11.9303 9.74127 11.9381 5.90766 11.9303C5.62313 11.9303 5.48087 12.0155 5.34609 12.2865C4.94925 13.1226 4.34276 13.7729 3.51914 14.1678C3.22712 14.3071 3.15974 14.4929 3.16722 14.7949C3.1822 15.809 3.1822 16.831 3.16722 17.8452C3.16722 18.1549 3.24959 18.3174 3.52662 18.4568C4.33528 18.8671 4.96423 19.5097 5.35358 20.3458C5.49584 20.6478 5.66805 20.7097 5.95258 20.7097C7.84692 20.702 9.74875 20.7097 11.6431 20.7097V20.7174Z" fill="#07abbe"/>
<path d="M6.63392 16.328C6.63392 16.777 6.25955 17.1486 5.81778 17.1409C5.39099 17.1409 5.06154 16.7925 5.04657 16.3589C5.03908 15.9022 5.38351 15.5151 5.81778 15.5073C6.24457 15.5073 6.62643 15.8944 6.62643 16.3357L6.63392 16.328ZM6.10231 16.328C6.07236 16.1886 5.99 16.0647 5.83276 16.0647C5.67552 16.0647 5.57818 16.1731 5.58567 16.3435C5.58567 16.4906 5.66803 16.5757 5.81029 16.5912C5.98251 16.6067 6.05738 16.4983 6.10231 16.328Z" fill="#07abbe"/>
<path d="M17.4759 15.4995C17.9026 15.484 18.277 15.8634 18.2845 16.3124C18.2845 16.7537 17.97 17.1098 17.5507 17.133C17.109 17.1563 16.7271 16.8079 16.7046 16.3588C16.6822 15.9253 17.0565 15.515 17.4759 15.4995ZM17.7529 16.3201C17.7379 16.1653 17.6556 16.0492 17.4908 16.0569C17.3336 16.0646 17.2363 16.1808 17.2512 16.3434C17.2587 16.475 17.3411 16.5756 17.4833 16.5756C17.6556 16.5756 17.7304 16.4827 17.7529 16.3124V16.3201Z" fill="#07abbe"/>
<path d="M12.32 18.49C12.6467 18.49 12.9367 18.4133 13.19 18.26C13.4433 18.1067 13.6433 17.8867 13.79 17.6H15.67C15.47 18.36 15.0733 18.96 14.48 19.4C13.8867 19.8333 13.1733 20.05 12.34 20.05C11.5133 20.05 10.8 19.8333 10.2 19.4C9.60667 18.9667 9.2 18.38 8.98 17.64H8.2V16.75H8.83C8.82333 16.69 8.82 16.6 8.82 16.48C8.82 16.3533 8.82333 16.2567 8.83 16.19H8.2V15.29H8.99C9.21 14.5567 9.61667 13.9767 10.21 13.55C10.81 13.1167 11.52 12.9 12.34 12.9C13.1733 12.9 13.8867 13.12 14.48 13.56C15.0733 14 15.47 14.6 15.67 15.36H13.79C13.6433 15.0733 13.4433 14.8567 13.19 14.71C12.9367 14.5567 12.6467 14.48 12.32 14.48C12 14.48 11.7133 14.55 11.46 14.69C11.2067 14.83 11.0033 15.03 10.85 15.29H12.52V16.19H10.57C10.5633 16.25 10.56 16.3467 10.56 16.48C10.56 16.6 10.5633 16.69 10.57 16.75H12.52V17.64H10.83C10.9833 17.9133 11.1867 18.1233 11.44 18.27C11.7 18.4167 11.9933 18.49 12.32 18.49Z" fill="#07abbe"/>
</g>
<defs>
<clipPath id="clip0_12591_7579">
<rect width="27" height="24" fill="#07abbe"/>
</clipPath>
</defs>
</svg>
