<svg xmlns="http://www.w3.org/2000/svg" width="24.5" height="30.5" viewBox="0 0 24.5 30.5">
  <path id="Vector-5" d="M5.445,1H16.564a4.283,4.283,0,0,1,1.69.361,4.366,4.366,0,0,1,1.421,1,4.47,4.47,0,0,1,.981,1.454,4.555,4.555,0,0,1,.353,1.729v.458H19.232V5.548a2.829,2.829,0,0,0-.8-1.911,2.7,2.7,0,0,0-1.868-.818H5.445a2.383,2.383,0,0,0-1.024.21,2.434,2.434,0,0,0-.843.63,2.486,2.486,0,0,0-.6.866,2.536,2.536,0,0,0-.2,1.045V26.476A2.874,2.874,0,0,0,3.6,28.387a2.433,2.433,0,0,0,.843.63,2.382,2.382,0,0,0,1.024.21h11.1a2.382,2.382,0,0,0,1.024-.21,2.433,2.433,0,0,0,.844-.63,2.874,2.874,0,0,0,.821-1.911v-2.8L16.494,26.4a.864.864,0,0,1-1.155-.078.914.914,0,0,1-.076-1.182l4.146-4.312a.861.861,0,0,1,.282-.2.844.844,0,0,1,.668,0,.86.86,0,0,1,.282.2l4.195,4.279a.918.918,0,0,1-.093,1.164.868.868,0,0,1-1.138.1l-2.578-2.637v2.729a4.916,4.916,0,0,1-1.334,3.275A4.392,4.392,0,0,1,16.581,31H5.445a4.2,4.2,0,0,1-1.681-.307,4.282,4.282,0,0,1-1.431-.953A4.737,4.737,0,0,1,1,26.476V5.548a4.556,4.556,0,0,1,.353-1.729,4.472,4.472,0,0,1,.981-1.454,4.366,4.366,0,0,1,1.421-1A4.283,4.283,0,0,1,5.445,1Zm16.9,11.464c.177.092.357.273.534.365a4.271,4.271,0,0,1,0,5.639,3.855,3.855,0,0,1-1.261.877,3.778,3.778,0,0,1-2.99,0,3.857,3.857,0,0,1-1.261-.877v-.092a3.78,3.78,0,0,1-.852-1.243,3.853,3.853,0,0,1-.305-1.486,4.052,4.052,0,0,1,.3-1.527,3.979,3.979,0,0,1,.854-1.29c.177-.092.353-.273.534-.365a2.887,2.887,0,0,1-.62-.964,2.941,2.941,0,0,1-.2-1.136,3.212,3.212,0,0,1,.887-2.184A3.007,3.007,0,0,1,19.521,7.3a2.962,2.962,0,0,1,1.771.168,3.041,3.041,0,0,1,1.372,1.157,3.147,3.147,0,0,1,.5,1.746,2.941,2.941,0,0,1-.2,1.136,2.889,2.889,0,0,1-.62.964Zm-1.334-3a1.573,1.573,0,0,0-.891-.365,1.573,1.573,0,0,0-.886.365,1.62,1.62,0,0,0-.357.911,1.39,1.39,0,0,0,.357.907,1.264,1.264,0,0,0,1.777,0,1.411,1.411,0,0,0,.357-.907A1.65,1.65,0,0,0,21.009,9.461Zm.534,4.732a1.77,1.77,0,0,0-.64-.488,1.73,1.73,0,0,0-.785-.15,1.9,1.9,0,0,0-.824.149,1.941,1.941,0,0,0-.686.49,1.978,1.978,0,0,0-.461.661,2.02,2.02,0,0,0,0,1.589,1.978,1.978,0,0,0,.461.661V17.2a2.3,2.3,0,0,0,1.51.634,2.091,2.091,0,0,0,1.424-.634,1.885,1.885,0,0,0,.489-.7,1.924,1.924,0,0,0,.135-.85,1.843,1.843,0,0,0-.148-.8A1.8,1.8,0,0,0,21.543,14.194Z" transform="translate(-0.75 -0.75)" fill="#9f72d5" stroke="#9f72d5" stroke-width="0.5"/>
</svg>
