<svg xmlns="http://www.w3.org/2000/svg" width="25" height="30" viewBox="0 0 25 30">
  <path id="Vector" d="M14.693,10.221c0-.12,0-.12.115-.12l1.543-5.333c.115-.355.475-.471.945-.471.359,0,.829.116.829.471L19.784,10.1v.12c0,.235-.47.476-.829.476-.235,0-.355,0-.47-.24l-.24-1.066H16.352l-.239,1.066c-.115.24-.235.24-.475.24C15.283,10.7,14.693,10.456,14.693,10.221Zm4.5,14.8H7.344v3.2H21.917a1.332,1.332,0,0,0,1.3-1.3V24.072a.808.808,0,0,1,.829-.831.844.844,0,0,1,.949.831V26.92A3.139,3.139,0,0,1,21.917,30H3.1A3.139,3.139,0,0,1,0,26.92V6.284l.12-.116V5.812l.115-.12V5.457h.12V5.213h.12V4.977h.12v-.12H.71V4.622h.12V4.5h.12V4.386h.115l3.317-3.32V.947H4.5V.831h.12l.12-.12h.137V.591H5l.12-.116h.115l.089-.12h.12l.12-.12h.355V.12h.475c.115,0,.235-.12.355-.12H21.917A3.166,3.166,0,0,1,25,3.2v15.9a.843.843,0,0,1-.949.831.808.808,0,0,1-.829-.831V3.2a1.331,1.331,0,0,0-1.3-1.426H7.344V13.163h11.85a.919.919,0,0,1,.949.831,1.017,1.017,0,0,1-.949.946H7.344v3.324h11.85a.835.835,0,1,1,0,1.657H7.344v3.319h11.85a1.021,1.021,0,0,1,.949.951.919.919,0,0,1-.949.831ZM5.57,28.222V2.253L2.253,5.573a1.78,1.78,0,0,0-.479,1.306V26.92a1.332,1.332,0,0,0,1.33,1.3ZM20.024,5.928V5.217H19.43a.315.315,0,0,1-.355-.356c0-.236.12-.475.355-.475h.594V3.795c0-.12.235-.236.475-.236s.355.116.355.236v.591h.59c.239,0,.359.24.359.475a.315.315,0,0,1-.359.356h-.6v.711c0,.12-.12.24-.355.24s-.475-.12-.475-.24ZM17.891,8.3,17.3,5.928,16.587,8.3Z" fill="currentColor" fill-rule="evenodd"/>
</svg>
