<svg xmlns="http://www.w3.org/2000/svg" width="21.003" height="28.002" viewBox="0 0 21.003 28.002">
  <g id="uscita-icon" transform="translate(-6.531)">
    <path id="Tracciato_347" data-name="Tracciato 347" d="M9.294,0h15.5a2.876,2.876,0,0,1,1.988.924,2.844,2.844,0,0,1,.751,2.027v22.1a2.849,2.849,0,0,1-.752,2.024A2.882,2.882,0,0,1,24.8,28H9.269a2.882,2.882,0,0,1-1.983-.926,2.849,2.849,0,0,1-.752-2.024v-3.8a1,1,0,0,1,2,0V25.11a.867.867,0,0,0,.229.623.876.876,0,0,0,.584.28H24.721a.876.876,0,0,0,.584-.28.867.867,0,0,0,.229-.623V2.889a.861.861,0,0,0-.227-.621.871.871,0,0,0-.584-.279H9.343a.871.871,0,0,0-.584.279.861.861,0,0,0-.227.621V6.74a1,1,0,0,1-2,0V2.952A2.844,2.844,0,0,1,7.284.925,2.876,2.876,0,0,1,9.272,0Z" transform="translate(0)" fill="#00a4b8" fill-rule="evenodd"/>
    <path id="Tracciato_348" data-name="Tracciato 348" d="M.844,13.261a.887.887,0,0,1,.845-.924H11.823a.927.927,0,0,1,0,1.847H1.689A.887.887,0,0,1,.844,13.261Z" transform="translate(21.667 27.862) rotate(180)" fill="#00a4b8" fill-rule="evenodd"/>
    <path id="Tracciato_349" data-name="Tracciato 349" d="M5.007,9.31a.924.924,0,0,1,0,1.306L2.229,13.393l2.782,2.782a.923.923,0,0,1-1.306,1.306L.27,14.046a.923.923,0,0,1,0-1.306L3.7,9.31A.923.923,0,0,1,5.007,9.31Z" transform="translate(21.667 27.838) rotate(180)" fill="#00a4b8" fill-rule="evenodd"/>
  </g>
</svg>
