<svg xmlns="http://www.w3.org/2000/svg" width="30" height="30" viewBox="0 0 30 30">
  <path id="Vector-8" d="M24.614,6.983H5.387a.84.84,0,0,1-.857-.859.821.821,0,0,1,.857-.735l19.25-.124a.918.918,0,0,1,.857.859.835.835,0,0,1-.857.859ZM27.552,0H2.449A2.454,2.454,0,0,0,0,2.452V17.9a2.481,2.481,0,0,0,2.447,2.571H14.21v1.96a.834.834,0,0,0,.857.859h1.1v5.862c-.119.615.614,1.1,1.347.615l1.833-1.35,1.833,1.35a.793.793,0,0,0,1.347-.615V23.276h1.1a.835.835,0,0,0,.857-.859v-1.96h3.062A2.483,2.483,0,0,0,30,17.9V2.452A2.454,2.454,0,0,0,27.552,0ZM20.819,27.44l-.981-.735a.751.751,0,0,0-.981,0l-1.1.735V23.873l.976.978a.915.915,0,0,0,1.228,0l.976-.978-.119,3.549Zm2.2-8.085a.956.956,0,0,0-.243.615v1.607H21.085a.916.916,0,0,0-.49.243L19.37,23.046l-1.247-1.24a.916.916,0,0,0-.614-.229H15.8V19.97c0-.248,0-.491-.243-.615l-1.1-1.226,1.1-1.221c.243-.124.243-.367.243-.615v-1.6H17.51a.916.916,0,0,0,.614-.243l1.224-1.226,1.224,1.226a.916.916,0,0,0,.513.243H22.8v1.593a.956.956,0,0,0,.243.615L24.27,18.12ZM28.285,17.9a.817.817,0,0,1-.733.859h-1.59s.733-.491,0-1.226L24.49,16.068V13.842a.834.834,0,0,0-.857-.854h-2.2l-1.467-1.593a1.107,1.107,0,0,0-1.228,0l-1.59,1.593H15.062a.835.835,0,0,0-.852.854v2.227l-1.59,1.469c-.614.611.119,1.226.119,1.226H2.449a.835.835,0,0,1-.857-.859V2.452a.834.834,0,0,1,.857-.859h25.1a.817.817,0,0,1,.733.859Zm-16.9-3.08h-6a.859.859,0,0,1,0-1.717h6a.859.859,0,0,1,0,1.717ZM24.614,10.9H5.387a.859.859,0,0,1,0-1.717h19.25a.859.859,0,0,1,0,1.717Z" fill="#bdbdbd" fill-rule="evenodd"/>
</svg>
