<svg width="21" height="30" viewBox="0 0 21 30" fill="none" xmlns="http://www.w3.org/2000/svg">
<path fill-rule="evenodd" clip-rule="evenodd" d="M18.5524 9.17132H17.6572V6.3377C17.6644 6.0031 17.6065 5.67033 17.4867 5.35846C17.367 5.04659 17.1877 4.76173 16.9593 4.5202C16.7308 4.27867 16.4576 4.0852 16.1553 3.95088C15.853 3.81655 15.5276 3.74401 15.1976 3.73739H12.5163C12.5213 3.24485 12.4293 2.75623 12.2456 2.30023C12.0619 1.84423 11.7903 1.43003 11.4466 1.08192C11.103 0.733814 10.6942 0.45882 10.2443 0.273074C9.79445 0.0873271 9.31252 -0.00542983 8.82682 0.000245553C7.85213 0.00910084 6.91984 0.405678 6.2306 1.10462C5.54136 1.80356 5.15029 2.74898 5.14156 3.73739H2.56899C2.22987 3.72929 1.89266 3.79097 1.57771 3.91872C1.26276 4.04648 0.976611 4.23764 0.736557 4.48068C0.496504 4.72372 0.307523 5.01358 0.181031 5.33276C0.0545386 5.65193 -0.0068394 5.9938 0.000604438 6.3377V23.8866C0.00766397 24.2212 0.0797387 24.5512 0.212702 24.8575C0.345666 25.1638 0.536907 25.4406 0.775477 25.6719C1.01405 25.9032 1.29526 26.0845 1.60302 26.2054C1.91077 26.3263 2.23903 26.3845 2.56899 26.3766H4.13345V27.5092C4.14 28.1683 4.40138 28.7984 4.86135 29.2641C5.32132 29.7297 5.94315 29.9937 6.59308 29.9992H15.1976C15.5077 30.0073 15.8161 29.9509 16.1039 29.8334C16.3917 29.7159 16.6527 29.54 16.8708 29.3163L20.2172 25.9227C20.6968 25.4426 20.9767 24.7944 20.9995 24.1114V11.6613C21.0063 11.3324 20.9475 11.0055 20.8265 10.7003C20.7055 10.3951 20.5249 10.1178 20.2955 9.88518C20.0661 9.65256 19.7927 9.4694 19.4917 9.34672C19.1907 9.22404 18.8684 9.16438 18.544 9.17132H18.5524ZM15.5322 16.968H9.6216C9.4016 16.9465 9.19803 16.8405 9.05259 16.6718C8.90716 16.503 8.83088 16.2842 8.83937 16.0602C8.83765 15.9558 8.85675 15.852 8.89551 15.7553C8.93426 15.6585 8.99189 15.5706 9.06492 15.4969C9.13796 15.4233 9.22491 15.3653 9.32057 15.3265C9.41622 15.2877 9.51861 15.2689 9.6216 15.2712H15.5322C15.6365 15.2682 15.7402 15.287 15.837 15.3263C15.9338 15.3657 16.0216 15.4248 16.0949 15.5C16.1682 15.5751 16.2256 15.6648 16.2633 15.7633C16.3011 15.8619 16.3185 15.9673 16.3145 16.073C16.3197 16.2948 16.242 16.5104 16.0968 16.6764C15.9517 16.8424 15.75 16.9466 15.5322 16.968ZM15.5322 21.2693H9.6216C9.51828 21.2733 9.41523 21.2561 9.31867 21.2186C9.22211 21.1811 9.13404 21.1242 9.05977 21.0513C8.98549 20.9783 8.92656 20.8909 8.88653 20.7942C8.84649 20.6976 8.82618 20.5937 8.82682 20.4888C8.8186 20.2633 8.89674 20.0433 9.04489 19.8748C9.19304 19.7064 9.3997 19.6027 9.6216 19.5853H15.5322C15.7519 19.6057 15.9554 19.7108 16.1009 19.8789C16.2465 20.047 16.3229 20.2653 16.3145 20.4888C16.3173 20.5938 16.2991 20.6982 16.2608 20.7958C16.2225 20.8934 16.165 20.982 16.0918 21.0562C16.0186 21.1305 15.9312 21.1888 15.835 21.2276C15.7387 21.2665 15.6357 21.285 15.5322 21.2821V21.2693ZM12.5163 25.6979H9.6216C9.50968 25.6957 9.39946 25.6698 9.298 25.6219C9.19654 25.5739 9.10608 25.505 9.03243 25.4195C8.95877 25.3341 8.90355 25.2339 8.87031 25.1255C8.83706 25.0171 8.82652 24.9029 8.83937 24.7901C8.83708 24.6853 8.85575 24.5811 8.89426 24.4839C8.93276 24.3866 8.99029 24.2982 9.06339 24.2241C9.13649 24.1499 9.22363 24.0916 9.31957 24.0526C9.41551 24.0135 9.51825 23.9946 9.6216 23.9969H12.5497C12.7706 23.9883 12.9863 24.0656 13.1528 24.2131C13.3192 24.3606 13.4237 24.567 13.4449 24.7901C13.4466 24.9098 13.4246 25.0286 13.3802 25.1395C13.3358 25.2505 13.2699 25.3512 13.1865 25.4359C13.103 25.5205 13.0037 25.5873 12.8943 25.6323C12.7849 25.6773 12.6677 25.6996 12.5497 25.6979H12.5163ZM15.1976 5.43417C15.3153 5.43247 15.4321 5.45464 15.5412 5.49939C15.6503 5.54415 15.7494 5.61057 15.8328 5.69475C15.9162 5.77894 15.9822 5.87919 16.0268 5.9896C16.0715 6.10002 16.0939 6.21837 16.0928 6.3377V9.17132H12.5163V5.43417H15.1976ZM6.83151 3.73739C6.82986 3.47041 6.88022 3.20572 6.9797 2.95852C7.07918 2.71132 7.22583 2.48648 7.41122 2.2969C7.59661 2.10732 7.8171 1.95674 8.06002 1.8538C8.30295 1.75085 8.56353 1.69757 8.82682 1.69702C9.37379 1.68775 9.90257 1.89616 10.2998 2.27757C10.697 2.65899 10.9311 3.18304 10.9518 3.73739H6.81896H6.83151ZM2.56899 24.6756C2.45791 24.69 2.34509 24.6803 2.23792 24.6474C2.13076 24.6145 2.03167 24.5589 1.94715 24.4844C1.86263 24.4099 1.79459 24.3182 1.74749 24.2151C1.70038 24.1121 1.67528 24.0002 1.67382 23.8866V6.3377C1.66579 6.21695 1.68334 6.09585 1.72527 5.98253C1.76721 5.86922 1.83257 5.76632 1.91696 5.68074C2.00136 5.59515 2.10283 5.52887 2.21457 5.48635C2.32631 5.44382 2.44573 5.42603 2.56481 5.43417H10.9309V9.17132H9.25767V7.36001C9.26056 7.25504 9.2423 7.15059 9.20401 7.05302C9.16572 6.95546 9.1082 6.86684 9.03498 6.79259C8.96176 6.71834 8.87438 6.66002 8.77817 6.62119C8.68196 6.58236 8.57895 6.56384 8.47544 6.56677C8.36434 6.55302 8.25162 6.56323 8.14467 6.59673C8.03773 6.63022 7.93896 6.68625 7.85485 6.76113C7.77074 6.83602 7.70317 6.92808 7.65657 7.03128C7.60997 7.13449 7.5854 7.24651 7.58446 7.36001V9.17132H6.59308C6.26856 9.1644 5.946 9.22405 5.64478 9.34668C5.34355 9.46931 5.06987 9.6524 4.84016 9.88495C4.61044 10.1175 4.42943 10.3947 4.30799 10.7C4.18654 11.0052 4.12718 11.3322 4.13345 11.6613V24.6756H2.56899ZM9.26186 10.7536H10.9351V11.322C10.9139 11.5447 10.8092 11.7507 10.6426 11.8975C10.4761 12.0443 10.2604 12.1207 10.0399 12.111C9.93675 12.1139 9.8341 12.0955 9.73818 12.0569C9.64226 12.0184 9.55507 11.9604 9.48191 11.8866C9.40875 11.8128 9.35115 11.7247 9.3126 11.6277C9.27405 11.5306 9.25536 11.4266 9.25767 11.322V10.7536H9.26186ZM5.7983 27.5092V11.6613C5.78981 11.4374 5.86609 11.2186 6.01152 11.0498C6.15695 10.881 6.36052 10.7751 6.58053 10.7536H7.58864V11.322C7.59409 11.9799 7.85396 12.6094 8.31237 13.0751C8.77078 13.5407 9.39109 13.8054 10.0399 13.812C10.3644 13.8189 10.687 13.7593 10.9882 13.6366C11.2894 13.514 11.5631 13.3309 11.7928 13.0984C12.0225 12.8658 12.2035 12.5886 12.325 12.2833C12.4464 11.9781 12.5058 11.6511 12.4995 11.322V10.7536H18.5524C18.7724 10.7751 18.976 10.881 19.1214 11.0498C19.2668 11.2186 19.3431 11.4374 19.3346 11.6613V23.9969H15.8711C15.7675 23.994 15.6645 24.0125 15.5683 24.0513C15.4721 24.0901 15.3847 24.1485 15.3115 24.2227C15.2383 24.297 15.1808 24.3856 15.1425 24.4832C15.1042 24.5807 15.0859 24.6852 15.0888 24.7901V28.4212H6.59308C6.37343 28.4008 6.16989 28.2957 6.02437 28.1276C5.87885 27.9595 5.80243 27.7412 5.81085 27.5177L5.7983 27.5092ZM16.6533 27.1487V25.6979H18.2177L16.6533 27.1487Z" fill="#bdbdbd"/>
</svg>
