<svg xmlns="http://www.w3.org/2000/svg" xmlns:xlink="http://www.w3.org/1999/xlink" width="27" height="31" viewBox="0 0 27 31">
  <defs>
    <clipPath id="clip-path">
      <rect id="Rectangle_4" data-name="Rectangle 4" width="27" height="31" fill="currentColor"/>
    </clipPath>
  </defs>
  <g id="Risorsa_15_1" data-name="Risorsa 15 1" clip-path="url(#clip-path)">
    <path id="Path_10" data-name="Path 10" d="M18.263,7.6a8.706,8.706,0,0,0-3.882-1.248A10.024,10.024,0,0,0,8.105,7.547,6.644,6.644,0,0,0,6.69,8.719l-.083.091,0,0a3.067,3.067,0,0,0-.753,2.08c.009.993.006,1.986,0,2.979l0,.771a.506.506,0,0,0,.505.507h0l13.533-.035a.5.5,0,0,0,.357-.149.508.508,0,0,0,.148-.359V12.712l-.007-.417a6.672,6.672,0,0,1,.011-.815A3.907,3.907,0,0,0,18.263,7.6Zm1.129,3.781a7.924,7.924,0,0,0-.015.938l.006,1.783-12.519.033v-.262c0-1,.006-1.995,0-2.992a2.046,2.046,0,0,1,.5-1.406l.06-.067a5.668,5.668,0,0,1,1.195-.995A9.081,9.081,0,0,1,14.285,7.36a7.739,7.739,0,0,1,3.443,1.1A2.91,2.91,0,0,1,19.392,11.384Z" fill="#bdbdbd" stroke="#bdbdbd" stroke-width="0.5"/>
    <path id="Path_11" data-name="Path 11" d="M18.706,17.956H7.565a2.18,2.18,0,0,0-2.176,2.177v4.778a2.18,2.18,0,0,0,2.176,2.177H18.706a2.181,2.181,0,0,0,2.177-2.177V20.134A2.181,2.181,0,0,0,18.706,17.956Zm1.165,6.955a1.166,1.166,0,0,1-1.165,1.165H7.565A1.166,1.166,0,0,1,6.4,24.911V20.134a1.166,1.166,0,0,1,1.165-1.165H18.706a1.166,1.166,0,0,1,1.165,1.165Z" fill="#bdbdbd" stroke="#bdbdbd" stroke-width="0.5"/>
    <path id="Path_12" data-name="Path 12" d="M7.862,11.224H18.379a.505.505,0,1,0,0-1.011H7.862a.505.505,0,0,0,0,1.011Z" fill="#bdbdbd" stroke="#bdbdbd" stroke-width="0.5"/>
    <path id="Path_13" data-name="Path 13" d="M25.964,18.411a1.269,1.269,0,0,0-1.272-1.227h-.758c-.047-1.072-.143-2.176-.281-3.311a38.785,38.785,0,0,0,.754-11.03,2.984,2.984,0,0,0-.347-1.035.5.5,0,0,0-.01-.08.485.485,0,0,0-.18-.238A2.95,2.95,0,0,0,22.422.358a6.555,6.555,0,0,0-1.3-.295,2.636,2.636,0,0,0-2.3.882L17.3,2.688a13.2,13.2,0,0,0-2.5-.423A16.977,16.977,0,0,0,8.96,2.7L7.461.929A2.606,2.606,0,0,0,5.172.018,6.517,6.517,0,0,0,3.866.3,2.95,2.95,0,0,0,2.394,1.425a.5.5,0,0,0-.135.188c-.006.015,0,.03-.008.045a2.984,2.984,0,0,0-.4,1.1c-.085.641-.446,4.2.744,11.223,0,0,.006.007.007.012-.044.365-.112.723-.149,1.09-.068.681-.123,1.381-.166,2.1H1.546A1.269,1.269,0,0,0,.272,18.411L0,25.77A1.271,1.271,0,0,0,1.27,27.088H2.514A3.479,3.479,0,0,0,6.156,30h.1c1.592-.032,3.184-.025,4.777-.016l3.634.006c1.8,0,3.609,0,5.412,0a4.637,4.637,0,0,0,1.045-.1,3.4,3.4,0,0,0,2.6-2.8h1.238a1.27,1.27,0,0,0,1.269-1.318ZM1.27,26.076a.258.258,0,0,1-.259-.269l.272-7.36a.26.26,0,0,1,.262-.252h.7c-.079,1.852-.091,3.856-.022,6.159.017.555.061,1.137.131,1.722ZM19.582,1.609a1.6,1.6,0,0,1,1.411-.543,5.518,5.518,0,0,1,1.1.247,1.913,1.913,0,0,1,.7.455A6.039,6.039,0,0,0,20.961,4.73a6.286,6.286,0,0,0-1.982-1.447c-.2-.094-.419-.172-.632-.254Zm-15.4-.354a5.5,5.5,0,0,1,1.1-.233,1.6,1.6,0,0,1,1.4.56L7.918,3.031c-.072.027-.15.043-.222.072a6.823,6.823,0,0,0-2.415,1.58A6.079,6.079,0,0,0,3.491,1.69,1.911,1.911,0,0,1,4.184,1.256ZM2.853,2.888a1.982,1.982,0,0,1,.092-.33A6.035,6.035,0,0,1,4.514,5.68a6.224,6.224,0,0,0-.728,1.731c-.259,1.023-.468,2.074-.665,3.129A34.917,34.917,0,0,1,2.853,2.888Zm19.918,23.9A2.415,2.415,0,0,1,20.9,28.905a3.658,3.658,0,0,1-.816.069q-2.707.007-5.411,0l-3.63-.007c-1.6,0-3.2-.012-4.8.016a2.512,2.512,0,0,1-2.766-2.213,13.838,13.838,0,0,1-.241-2.45c-.075-2.489-.058-4.629.042-6.591,0-.015.009-.028.009-.044s-.005-.019-.006-.029c.045-.855.1-1.687.18-2.482A51.881,51.881,0,0,1,4.766,7.659,5.08,5.08,0,0,1,8.072,4.042a12.771,12.771,0,0,1,4.871-.84c.564,0,1.159.024,1.792.071a10.967,10.967,0,0,1,3.822.928A5.276,5.276,0,0,1,21.6,8.068a49.571,49.571,0,0,1,1.357,9.622h0v0s0,.01,0,.014c.063,2.027.085,4.1.067,6.338A14.511,14.511,0,0,1,22.77,26.786Zm.374-16.265c-.163-.871-.35-1.763-.563-2.682a7.178,7.178,0,0,0-.869-2.1A5.986,5.986,0,0,1,23.32,2.651a1.967,1.967,0,0,1,.082.312A32.356,32.356,0,0,1,23.144,10.521ZM25.154,26a.259.259,0,0,1-.186.079H23.892a16.932,16.932,0,0,0,.141-2.025c.016-2.062-.006-3.978-.058-5.855h.717a.261.261,0,0,1,.263.252l.271,7.36A.259.259,0,0,1,25.154,26Z" fill="#bdbdbd" stroke="#bdbdbd" stroke-width="0.5"/>
  </g>
</svg>
