<svg xmlns="http://www.w3.org/2000/svg" width="29.996" height="30" viewBox="0 0 29.996 30">
  <path id="Vector-1" d="M16.184,6.477H9.231a.878.878,0,0,1-.8-.907.776.776,0,0,1,.8-.8h6.953a.779.779,0,0,1,.8.8.882.882,0,0,1-.8.907ZM29.4,11.5l-1.246-1.158a2,2,0,0,0-2.849,0l-3.191,3.185V2.5A2.527,2.527,0,0,0,19.622,0H6.267A2.412,2.412,0,0,0,4.56.8L.683,4.544A2.782,2.782,0,0,0,0,6.362V27.5A2.456,2.456,0,0,0,2.509,30H19.622a2.527,2.527,0,0,0,2.508-2.5V21.717L29.4,14.431a2.127,2.127,0,0,0,0-2.955ZM4.786,2.981V4.91H2.85ZM20.4,27.525a.776.776,0,0,1-.776.771H2.509a.81.81,0,0,1-.913-.8V6.477H5.584a.775.775,0,0,0,.815-.8V1.7H19.622a.775.775,0,0,1,.8.8V15.113l-5.831,5.8c-.115.226-.23.341-.23.571V24.43a.882.882,0,0,0,.8.911H18.12A.623.623,0,0,0,18.688,25l1.706-1.593V27.5Zm-2.619-3.862H16.073V21.819l8.1-8.091L26,15.432ZM28.153,13.294l-1.028,1.022-1.706-1.7L26.447,11.5a.526.526,0,0,1,.567,0l1.139,1.116C28.379,12.728,28.379,13.069,28.153,13.294ZM11.624,25.341H5.81a.882.882,0,0,1-.8-.911.78.78,0,0,1,.8-.792h5.814a.878.878,0,0,1,.913.792.98.98,0,0,1-.913.911Zm0-4.774H5.81a.78.78,0,0,1-.8-.8.878.878,0,0,1,.8-.907h5.814a.976.976,0,0,1,.913.907.883.883,0,0,1-.913.8Zm4.56-4.658H5.81a.882.882,0,0,1-.8-.911.78.78,0,0,1,.8-.792H16.184a.779.779,0,0,1,.8.792.882.882,0,0,1-.8.911Zm0-4.774H5.81a.78.78,0,0,1-.8-.8.882.882,0,0,1,.8-.907H16.184a.882.882,0,0,1,.8.907.78.78,0,0,1-.8.8Z" fill="#bdbdbd" fill-rule="evenodd"/>
</svg>
